<svg xmlns="http://www.w3.org/2000/svg" width="64" height="64" fill="none"><path fill="#000" d="M17.946 27.674c.57-1.441 1.53-2.732 2.882-3.873 1.38-1.17 3.122-1.771 5.223-1.801h16.932c.84 0 1.546.3 2.116.9.6.571.901 1.277.901 2.117 0 .84-.3 1.561-.9 2.162-.571.57-1.276.855-2.117.855H25.87c-.57 0-1.066.24-1.486.72-.42.451-.75.991-.99 1.622-.21.63-.316 1.23-.316 1.801v7.88c-.18 1.802-1.17 2.777-2.972 2.927-.84 0-1.576-.27-2.206-.81-.6-.57-.901-1.276-.901-2.117v-7.835h.045c0-1.561.3-3.077.9-4.548Z"/></svg>