<svg xmlns="http://www.w3.org/2000/svg" width="64" height="64" fill="none"><path fill="#fff" d="M11.402 24.413c.846-2.137 2.27-4.05 4.274-5.742 2.047-1.736 4.629-2.627 7.745-2.671h25.105c1.247 0 2.293.445 3.139 1.335.89.846 1.335 1.892 1.335 3.139 0 1.246-.445 2.314-1.335 3.205-.846.845-1.892 1.268-3.139 1.268H23.154c-.846 0-1.58.356-2.204 1.069-.623.667-1.113 1.469-1.469 2.403-.311.935-.467 1.825-.467 2.671v11.685c-.267 2.67-1.736 4.117-4.407 4.34-1.246 0-2.337-.4-3.272-1.202-.89-.846-1.335-1.892-1.335-3.138V31.157h.067c0-2.315.445-4.563 1.335-6.744Z"/></svg>