<svg width="250" height="94" fill="none" xmlns="http://www.w3.org/2000/svg"><path d="M3.269 47.242c.765-1.933 2.053-3.665 3.866-5.195 1.852-1.57 4.188-2.376 7.007-2.416h22.712c1.128 0 2.074.403 2.84 1.208.805.765 1.207 1.712 1.207 2.839 0 1.128-.402 2.094-1.208 2.9-.765.765-1.711 1.147-2.839 1.147H13.9c-.765 0-1.43.322-1.993.967a6.578 6.578 0 0 0-1.33 2.174c-.281.846-.422 1.651-.422 2.417v10.57c-.242 2.417-1.57 3.726-3.987 3.927-1.128 0-2.114-.362-2.96-1.087C2.403 65.928 2 64.98 2 63.853v-10.51h.06c0-2.094.403-4.128 1.209-6.101ZM51.05 39.027a4.007 4.007 0 0 1 2.778 1.208c.765.725 1.168 1.63 1.208 2.718v20.9c-.241 2.417-1.57 3.726-3.986 3.927-1.128 0-2.115-.362-2.96-1.087-.806-.765-1.208-1.712-1.208-2.84v-20.9c.04-1.127.463-2.054 1.268-2.779.806-.765 1.772-1.147 2.9-1.147Zm-5.075-7.853c0-1.128.484-2.094 1.45-2.9.967-.805 2.135-1.208 3.504-1.208 1.369 0 2.537.403 3.503 1.209.967.805 1.45 1.771 1.45 2.899 0 1.168-.483 2.154-1.45 2.96-.966.805-2.134 1.208-3.503 1.208-1.37 0-2.537-.403-3.504-1.208-.966-.806-1.45-1.792-1.45-2.96ZM61.5 43.678c0-1.127.383-2.074 1.148-2.839.805-.805 1.771-1.208 2.9-1.208h33.706c1.127 0 2.094.382 2.899 1.148.765.805 1.148 1.771 1.148 2.899 0 1.128-.322 1.973-.967 2.537-.604.524-1.208.967-1.812 1.329L80.044 58.961h19.21c1.127 0 2.094.382 2.899 1.148.765.805 1.148 1.771 1.148 2.899 0 1.127-.403 2.094-1.208 2.9-.765.765-1.712 1.147-2.84 1.147H65.548c-1.127 0-2.074-.403-2.839-1.208-.805-.765-1.208-1.712-1.208-2.839 0-1.128.403-2.094 1.208-2.9.161-.16.322-.302.483-.422l.121-.06 21.565-11.9h-19.33c-1.127 0-2.074-.404-2.839-1.209-.805-.765-1.208-1.711-1.208-2.839ZM122.752 67.84c-1.37 0-2.739-.241-4.108-.724-1.329-.484-2.618-1.188-3.866-2.115-1.248-.966-2.336-2.235-3.262-3.805-.926-1.57-1.43-3.443-1.51-5.618V42.712c0-1.128.403-2.054 1.208-2.78.846-.764 1.832-1.147 2.96-1.147 2.416.202 3.725 1.51 3.926 3.927v12.383c.041.966.242 1.792.604 2.476.363.645.765 1.168 1.208 1.571.443.362.886.644 1.329.846a4.57 4.57 0 0 0 1.45.241c.483 0 .967-.08 1.45-.241a5.595 5.595 0 0 0 1.389-.846c.443-.403.846-.926 1.208-1.57.363-.685.544-1.51.544-2.477V42.712c0-1.128.403-2.054 1.208-2.78.846-.764 1.832-1.147 2.96-1.147 2.416.202 3.745 1.51 3.987 3.927v12.383c.04.966.241 1.772.604 2.416.362.685.765 1.228 1.208 1.631.443.362.886.644 1.329.846a4.56 4.56 0 0 0 1.45.241c.483 0 .966-.08 1.449-.241a5.582 5.582 0 0 0 1.39-.846c.443-.403.845-.926 1.208-1.57.362-.685.544-1.51.544-2.477V42.712c0-1.128.402-2.054 1.208-2.78.845-.764 1.832-1.147 2.96-1.147 2.416.202 3.745 1.51 3.986 3.927v12.866c0 2.175-.483 4.047-1.449 5.618-.927 1.57-2.014 2.839-3.262 3.805a13.978 13.978 0 0 1-3.866 2.115 11.931 11.931 0 0 1-4.108.724 12.28 12.28 0 0 1-4.108-.724c-1.328-.484-2.617-1.209-3.866-2.175a4.353 4.353 0 0 1-.664-.544 46.99 46.99 0 0 1-.664.544c-1.249.966-2.558 1.691-3.927 2.175a11.93 11.93 0 0 1-4.107.724ZM194.514 63.854V49.296c0-1.007-.524-1.53-1.571-1.57h-21.142c-.765.04-1.429.382-1.993 1.026a5.85 5.85 0 0 0-1.269 2.175 8.594 8.594 0 0 0-.362 2.476c0 .806.121 1.631.362 2.477.282.805.705 1.53 1.269 2.175.564.604 1.228.906 1.993.906h15.464c1.128 0 2.074.403 2.839 1.208.806.765 1.208 1.711 1.208 2.839 0 1.127-.402 2.074-1.208 2.839-.765.805-1.711 1.208-2.839 1.208h-15.222c-2.819-.04-5.155-.825-7.007-2.356-1.812-1.57-3.121-3.322-3.927-5.255a16.739 16.739 0 0 1-1.147-6.101c0-2.014.402-3.987 1.208-5.92.805-1.973 2.114-3.725 3.926-5.255 1.812-1.57 4.49-2.416 8.034-2.537h25.371c1.127 0 2.094.382 2.899 1.148.806.724 1.228 1.65 1.269 2.778v20.297c0 1.127-.423 2.074-1.269 2.839-.805.725-1.772 1.087-2.899 1.087-2.417-.201-3.746-1.51-3.987-3.926ZM229.731 38.725c2.094 0 4.147.241 6.161.725a24.977 24.977 0 0 1 5.859 2.174 16.342 16.342 0 0 1 4.893 3.745c1.45 1.571 2.235 3.444 2.356 5.618v12.867c-.242 2.416-1.571 3.725-3.987 3.926-1.127 0-2.114-.362-2.96-1.087-.805-.765-1.208-1.712-1.208-2.84V52.86c-.08-1.249-.564-2.276-1.45-3.08a9.549 9.549 0 0 0-2.899-1.994 15.288 15.288 0 0 0-3.322-1.088 16.396 16.396 0 0 0-3.443-.362c-1.168 0-2.336.12-3.504.362a16.848 16.848 0 0 0-3.322 1.088 10.657 10.657 0 0 0-2.9 1.993c-.846.805-1.309 1.832-1.389 3.08v10.995c-.202 2.416-1.51 3.725-3.927 3.926-1.127 0-2.114-.362-2.959-1.087-.806-.765-1.209-1.712-1.209-2.84V50.988c.121-2.174.886-4.047 2.296-5.618a16.342 16.342 0 0 1 4.893-3.745 25.2 25.2 0 0 1 5.799-2.174 27.07 27.07 0 0 1 6.222-.725Z" fill="#fff"/></svg>